<?xml version="1.0" standalone="no"?>
<!DOCTYPE svg PUBLIC "-//W3C//DTD SVG 20010904//EN"
 "http://www.w3.org/TR/2001/REC-SVG-20010904/DTD/svg10.dtd">
<svg version="1.0" xmlns="http://www.w3.org/2000/svg"
 width="512.000000pt" height="512.000000pt" viewBox="0 0 512.000000 512.000000"
 preserveAspectRatio="xMidYMid meet">
<metadata>
Created by potrace 1.16, written by Peter Selinger 2001-2019
</metadata>
<g transform="translate(0.000000,512.000000) scale(0.100000,-0.100000)"
fill="#000000" stroke="none">
<path d="M2236 5104 c-438 -56 -872 -234 -1231 -503 -127 -96 -334 -297 -436
-424 -285 -353 -461 -744 -540 -1202 -30 -174 -38 -532 -15 -715 96 -765 506
-1428 1142 -1846 327 -216 735 -362 1126 -404 126 -13 422 -13 546 0 177 20
356 58 522 112 964 313 1648 1154 1760 2163 15 136 12 443 -5 585 -69 559
-315 1072 -705 1474 -417 428 -944 691 -1530 761 -155 19 -484 18 -634 -1z
m626 -279 c-45 -24 -116 -68 -158 -96 l-74 -52 -125 54 c-68 29 -123 54 -122
56 2 1 48 14 102 28 128 33 267 53 375 54 l85 1 -83 -45z m-944 -40 c-2 -2
-46 -29 -98 -60 -150 -90 -312 -218 -458 -359 -255 -248 -424 -474 -582 -777
l-65 -126 -152 65 -153 66 46 86 c108 200 231 366 394 534 257 265 538 449
889 582 l84 31 49 -20 c27 -11 47 -21 46 -22z m1496 -13 c3 -6 -37 -105 -143
-349 -10 -21 -15 -19 -218 69 -114 50 -210 93 -213 95 -18 17 236 146 340 173
75 19 225 27 234 12z m-1109 -153 l164 -71 -129 -137 c-288 -303 -522 -644
-740 -1077 l-106 -211 -302 131 c-166 73 -304 134 -306 137 -9 8 129 255 211
378 198 298 456 560 739 752 74 50 283 169 297 169 4 0 82 -32 172 -71z m1342
29 c60 -63 117 -157 151 -251 31 -85 66 -230 60 -245 -5 -14 -423 174 -420
190 8 37 148 348 157 348 6 0 29 -19 52 -42z m-745 -289 c128 -56 245 -107
260 -113 l26 -11 -336 -775 c-186 -426 -341 -774 -345 -774 -25 2 -837 361
-837 369 0 18 173 354 245 475 129 218 263 409 404 580 69 83 330 350 342 350
5 0 113 -46 241 -101z m1208 -89 c31 -41 70 -95 85 -120 36 -56 114 -200 109
-200 -4 0 -238 101 -242 105 -1 1 -9 46 -17 99 -8 52 -23 130 -34 172 l-20 76
31 -28 c17 -16 56 -63 88 -104z m-478 -228 l248 -107 0 -150 c0 -333 -74 -743
-211 -1159 -54 -166 -129 -370 -141 -381 -7 -7 -842 359 -842 368 0 5 151 355
335 778 263 605 337 768 349 764 8 -4 126 -54 262 -113z m640 -278 l137 -59
22 -80 c69 -253 95 -474 86 -744 -9 -284 -55 -542 -146 -816 -50 -152 -57
-166 -84 -156 -40 16 -582 253 -586 256 -1 2 16 52 39 112 200 510 329 1099
330 1506 l0 67 33 -13 c17 -8 94 -41 169 -73z m401 -174 c42 -19 47 -25 82
-108 123 -290 185 -600 185 -918 0 -193 -11 -312 -46 -484 -25 -122 -96 -356
-113 -373 -7 -7 -281 102 -299 118 -1 1 15 52 37 112 74 208 128 434 163 683
8 59 13 189 12 340 0 253 -13 391 -53 568 -10 45 -18 82 -16 82 1 0 23 -9 48
-20z m-4179 -231 c77 -34 142 -62 144 -64 1 -1 -15 -52 -37 -112 -124 -345
-176 -646 -176 -1013 0 -248 11 -369 50 -552 13 -60 21 -108 19 -108 -2 0 -24
10 -49 22 -41 20 -47 28 -81 107 -122 289 -184 599 -184 917 0 192 11 312 46
481 33 165 102 383 120 383 4 0 70 -27 148 -61z m641 -279 c154 -67 282 -123
284 -125 1 -2 -16 -52 -39 -112 -207 -527 -302 -966 -333 -1530 l-2 -42 -167
72 -167 72 -21 77 c-123 452 -121 905 6 1387 31 117 93 305 109 331 7 11 -8
17 330 -130z m880 -383 c243 -106 419 -188 418 -195 -3 -12 -663 -1534 -668
-1540 -1 -1 -120 48 -263 110 l-262 113 0 150 c0 397 106 906 292 1395 57 150
57 150 61 150 1 0 191 -82 422 -183z m1232 -535 c112 -48 203 -91 203 -97 0
-18 -175 -357 -245 -475 -126 -212 -282 -434 -418 -595 -68 -82 -317 -335
-328 -335 -5 0 -125 51 -267 113 l-260 113 318 729 c174 402 326 751 338 777
l20 47 219 -95 c120 -52 309 -134 420 -182z m728 -317 c138 -59 253 -111 257
-114 11 -9 -119 -244 -209 -380 -108 -163 -220 -298 -358 -435 -190 -187 -367
-321 -579 -435 l-98 -54 -169 73 -168 73 124 131 c296 311 546 679 762 1117
l88 177 50 -22 c27 -13 163 -71 300 -131z m657 -286 l78 -33 -46 -86 c-108
-199 -233 -369 -398 -539 -256 -263 -549 -452 -896 -581 l-75 -27 -48 21 -48
21 92 55 c278 164 597 461 811 755 89 122 187 283 250 409 l51 104 76 -33 c42
-18 111 -47 153 -66z m-3695 -440 c65 -28 119 -52 121 -54 1 -1 9 -46 17 -99
8 -52 23 -130 34 -172 l20 -76 -31 28 c-35 33 -131 158 -173 224 -36 56 -114
200 -109 200 2 0 56 -23 121 -51z m745 -327 c10 -10 -144 -362 -159 -362 -24
0 -123 125 -162 204 -41 83 -84 216 -96 299 l-7 46 208 -90 c115 -50 212 -94
216 -97z m536 -230 c34 -14 62 -29 62 -33 0 -26 -234 -141 -344 -169 -78 -20
-220 -27 -230 -12 -2 4 27 79 66 167 38 88 74 170 78 182 9 22 11 21 157 -43
81 -36 176 -77 211 -92z m399 -173 c65 -28 119 -52 121 -54 5 -4 -165 -46
-248 -60 -47 -8 -137 -18 -200 -21 l-115 -6 84 46 c45 25 115 68 155 96 39 27
74 50 78 50 4 0 60 -23 125 -51z"/>
</g>
</svg>
